<?xml version="1.0" encoding="UTF-8" standalone="no"?>
<!-- Created with Inkscape (http://www.inkscape.org/) -->

<svg
   width="300mm"
   height="150mm"
   viewBox="0 0 300 150"
   version="1.1"
   id="svg1"
   sodipodi:docname="city.svg"
   inkscape:version="1.3.2 (091e20e, 2023-11-25, custom)"
   xmlns:inkscape="http://www.inkscape.org/namespaces/inkscape"
   xmlns:sodipodi="http://sodipodi.sourceforge.net/DTD/sodipodi-0.dtd"
   xmlns="http://www.w3.org/2000/svg"
   xmlns:svg="http://www.w3.org/2000/svg">
  <sodipodi:namedview
     id="namedview1"
     pagecolor="#ffffff"
     bordercolor="#000000"
     borderopacity="0.25"
     inkscape:showpageshadow="2"
     inkscape:pageopacity="0.0"
     inkscape:pagecheckerboard="true"
     inkscape:deskcolor="#d1d1d1"
     inkscape:document-units="mm"
     inkscape:zoom="1.4450372"
     inkscape:cx="558.46311"
     inkscape:cy="256.39478"
     inkscape:window-width="2560"
     inkscape:window-height="1566"
     inkscape:window-x="-11"
     inkscape:window-y="-11"
     inkscape:window-maximized="1"
     inkscape:current-layer="layer3" />
  <defs
     id="defs1">
    <inkscape:path-effect
       effect="fillet_chamfer"
       id="path-effect209"
       is_visible="true"
       lpeversion="1"
       nodesatellites_param="F,0,0,1,0,2.8166157,0,1 @ F,0,0,1,0,12.549321,0,1 @ F,0,0,1,0,0,0,1 @ F,0,0,1,0,0,0,1"
       radius="0"
       unit="px"
       method="auto"
       mode="F"
       chamfer_steps="1"
       flexible="false"
       use_knot_distance="true"
       apply_no_radius="true"
       apply_with_radius="true"
       only_selected="false"
       hide_knots="false" />
  </defs>
  <g
     inkscape:groupmode="layer"
     id="layer3"
     inkscape:label="Bg"
     style="fill:#696969;fill-opacity:1">
    <path
       sodipodi:type="star"
       style="fill:#e8e8e8;fill-opacity:1;stroke-width:0.264583;stroke:none;stroke-opacity:1"
       id="path209"
       inkscape:flatsided="true"
       sodipodi:sides="3"
       sodipodi:cx="166.14459"
       sodipodi:cy="175.30209"
       sodipodi:r1="21.750925"
       sodipodi:r2="10.875462"
       sodipodi:arg1="-1.5707963"
       sodipodi:arg2="-0.52359878"
       inkscape:rounded="0"
       inkscape:randomized="0"
       d="m 166.14459,153.55117 18.83686,32.62639 -37.67371,0 z"
       inkscape:transform-center-x="2.0931601e-06"
       inkscape:transform-center-y="-17.019128"
       transform="matrix(1,0,0,3.1298182,36.577376,-432.70175)" />
    <path
       style="fill:#e8e8e8;fill-opacity:1;stroke-width:0.264583;stroke:none;stroke-opacity:1"
       id="rect209"
       width="14.571829"
       height="65.937111"
       x="97.719734"
       y="84.062889"
       inkscape:path-effect="#path-effect209"
       sodipodi:type="rect"
       d="m 100.53635,84.062889 a 12.158752,12.158752 46.871373 0 1 11.75521,12.549321 l 0,53.38779 H 97.719734 V 86.879505 a 2.8166157,2.8166157 135 0 1 2.816616,-2.816616 z" />
  </g>
  <path
     sodipodi:type="spiral"
     style="fill:none;fill-rule:evenodd;stroke:#b0b0b0;stroke-width:0.264583;fill-opacity:1;stroke-opacity:1"
     id="path11"
     sodipodi:cx="134.38963"
     sodipodi:cy="99.691734"
     sodipodi:expansion="1"
     sodipodi:revolution="0.5"
     sodipodi:radius="128.00995"
     sodipodi:argument="-3.4223931"
     sodipodi:t0="0"
     d="M 134.38963,99.691734 C 97.3886,110.36361 101.74915,55.08021 116.65227,38.193583 157.0388,-7.5681298 228.47682,20.944046 257.38593,64.217001"
     transform="matrix(1.764818,0,0,1.0963514,-154.24718,18.317446)" />
  <path
     sodipodi:type="spiral"
     style="fill:none;fill-rule:evenodd;stroke:#b0b0b0;stroke-width:0.264583;stroke-opacity:1"
     id="path11-6"
     sodipodi:cx="134.38963"
     sodipodi:cy="99.691734"
     sodipodi:expansion="1"
     sodipodi:revolution="0.5"
     sodipodi:radius="128.00995"
     sodipodi:argument="-3.4223931"
     sodipodi:t0="0"
     d="M 134.38963,99.691734 C 97.3886,110.36361 101.74915,55.08021 116.65227,38.193583 157.0388,-7.5681298 228.47682,20.944046 257.38593,64.217001"
     transform="matrix(1.6818328,0,0,0.98730604,-133.04871,29.205158)" />
  <g
     inkscape:groupmode="layer"
     id="layer4"
     inkscape:label="Fg">
    <path
       id="rect1"
       style="stroke-width:0.264583;fill:#dddddd;fill-opacity:1"
       d="M 243.00481 22.858553 L 226.8585 48.626489 L 226.8585 31.676103 L 225.30201 31.676103 L 225.30201 51.110575 L 216.63897 64.936088 L 216.63897 150.00015 L 243.00481 150.00015 L 243.00481 22.858553 z " />
    <path
       id="rect5"
       style="fill:#dddddd;fill-opacity:1;stroke-width:0.181868"
       d="M 80.798686 52.231954 A 31.492844 9.2016134 0 0 0 49.306034 61.433976 A 31.492844 9.2016134 0 0 0 69.399382 70.007096 A 43.416064 58.579285 0 0 1 74.869849 98.259119 A 43.416064 58.579285 0 0 1 52.136869 149.67252 L 52.136869 150.00015 L 74.869849 150.00015 L 86.353385 150.00015 L 109.08636 150.00015 L 109.08636 149.67252 A 43.416064 58.579285 0 0 1 86.353385 98.259119 A 43.416064 58.579285 0 0 1 91.804215 70.052572 A 31.492844 9.2016134 0 0 0 112.29134 61.433976 A 31.492844 9.2016134 0 0 0 80.798686 52.231954 z " />
    <path
       id="rect11"
       style="fill:#dddddd;fill-opacity:1;stroke-width:0.264583"
       d="M 157.95315 40.394434 L 157.95315 49.023364 A 17.92944 17.92944 0 0 1 163.39106 47.229159 L 163.39106 82.623897 A 17.92944 17.92944 0 0 1 157.95315 80.830208 L 157.95315 150.00015 L 189.28509 150.00015 L 189.28509 40.394434 L 157.95315 40.394434 z M 169.08735 47.248279 A 17.92944 17.92944 0 0 1 184.07404 64.926786 A 17.92944 17.92944 0 0 1 169.08735 82.524162 L 169.08735 47.248279 z " />
    <rect
       style="fill:#dddddd;fill-opacity:1;stroke-width:0.264583"
       id="rect13"
       width="9.321825"
       height="38.1381"
       x="35.21698"
       y="111.86189" />
    <rect
       style="fill:#dddddd;fill-opacity:1;stroke-width:0.264583"
       id="rect14"
       width="5.1787915"
       height="19.069206"
       x="116.84836"
       y="130.58717" />
    <path
       id="rect15"
       style="fill:#dddddd;fill-opacity:1;stroke-width:0.264583"
       d="M 136.8516 56.847693 L 133.64611 67.582438 L 128.3379 67.582438 L 128.3379 97.43798 L 151.64242 74.133459 L 151.64242 67.582438 L 140.0576 67.582438 L 136.8516 56.847693 z M 151.64242 75.748865 L 128.3379 99.053902 L 128.3379 110.56741 L 151.64242 87.262891 L 151.64242 75.748865 z M 151.64242 89.875134 L 128.3379 113.17914 L 128.3379 150.00015 L 151.64242 150.00015 L 151.64242 89.875134 z " />
    <path
       id="path26"
       style="fill:#dddddd;fill-opacity:1;stroke-width:0.264583"
       inkscape:transform-center-y="-5.6065801"
       d="M 60.705539 -60.804889 L 60.705539 -52.382664 L 46.240789 -52.382664 L 46.240789 -47.214504 L 39.357488 -47.214504 L 41.700498 -40.872256 L 39.357488 -40.872256 L 39.357488 -40.095559 L 41.987302 -40.095559 L 42.848231 -37.764952 L 39.357488 -37.764952 L 39.357488 -36.988255 L 43.135035 -36.988255 L 43.995965 -34.657648 L 39.357488 -34.657648 L 39.357488 -33.880951 L 44.282769 -33.880951 L 45.143698 -31.550344 L 39.357488 -31.550344 L 39.357488 -30.773647 L 45.430502 -30.773647 L 46.291432 -28.44304 L 39.357488 -28.44304 L 39.357488 -27.666343 L 46.578236 -27.666343 L 47.439165 -25.335736 L 39.357488 -25.335736 L 39.357488 -24.559039 L 47.726486 -24.559039 L 48.587416 -22.228432 L 39.357488 -22.228432 L 39.357488 -21.451736 L 48.87422 -21.451736 L 49.735149 -19.121128 L 39.357488 -19.121128 L 39.357488 -18.344432 L 50.02247 -18.344432 L 50.8834 -16.013825 L 39.357488 -16.013825 L 39.357488 -15.237128 L 51.170204 -15.237128 L 52.031133 -12.906521 L 39.357488 -12.906521 L 39.357488 -12.129824 L 52.318454 -12.129824 L 54.211362 -7.0055889 L 52.236805 -3.5851258 L 39.357488 -3.5851258 L 39.357488 -2.8079123 L 51.787737 -2.8079123 L 50.4426 -0.47782193 L 39.357488 -0.47782193 L 39.357488 0.29939161 L 49.993531 0.29939161 L 48.648394 2.6294819 L 39.357488 2.6294819 L 39.357488 3.4066955 L 48.199842 3.4066955 L 46.854705 5.7367858 L 39.357488 5.7367858 L 39.357488 6.5134826 L 46.406154 6.5134826 L 45.060499 8.8440897 L 39.357488 8.8440897 L 39.357488 9.6207865 L 44.612465 9.6207865 L 43.26681 11.951394 L 39.357488 11.951394 L 39.357488 12.72809 L 42.818259 12.72809 L 39.357488 18.722556 L 78.201112 18.722556 L 74.740341 12.72809 L 78.201112 12.72809 L 78.201112 11.951394 L 74.29179 11.951394 L 72.946136 9.6207865 L 78.201112 9.6207865 L 78.201112 8.8440897 L 72.498101 8.8440897 L 71.152447 6.5134826 L 78.201112 6.5134826 L 78.201112 5.7367858 L 70.703895 5.7367858 L 69.358758 3.4066955 L 78.201112 3.4066955 L 78.201112 2.6294819 L 68.909689 2.6294819 L 67.564552 0.29939161 L 78.201112 0.29939161 L 78.201112 -0.47782193 L 67.115484 -0.47782193 L 65.770346 -2.8079123 L 78.201112 -2.8079123 L 78.201112 -3.5851258 L 65.321795 -3.5851258 L 63.346722 -7.0055889 L 65.239629 -12.129824 L 78.201112 -12.129824 L 78.201112 -12.906521 L 65.52695 -12.906521 L 66.38788 -15.237128 L 78.201112 -15.237128 L 78.201112 -16.013825 L 66.674684 -16.013825 L 67.535613 -18.344432 L 78.201112 -18.344432 L 78.201112 -19.121128 L 67.822934 -19.121128 L 68.683863 -21.451736 L 78.201112 -21.451736 L 78.201112 -22.228432 L 68.970668 -22.228432 L 69.831597 -24.559039 L 78.201112 -24.559039 L 78.201112 -25.335736 L 70.118918 -25.335736 L 70.979847 -27.666343 L 78.201112 -27.666343 L 78.201112 -28.44304 L 71.266652 -28.44304 L 72.127581 -30.773647 L 78.201112 -30.773647 L 78.201112 -31.550344 L 72.414902 -31.550344 L 73.275831 -33.880951 L 78.201112 -33.880951 L 78.201112 -34.657648 L 73.562635 -34.657648 L 74.423565 -36.988255 L 78.201112 -36.988255 L 78.201112 -37.764952 L 74.710369 -37.764952 L 75.571298 -40.095559 L 78.201112 -40.095559 L 78.201112 -40.872256 L 75.858103 -40.872256 L 78.201112 -47.214504 L 64.184397 -47.214504 L 64.184397 -52.382664 L 64.184397 -60.804889 L 60.705539 -60.804889 z "
       transform="translate(215.95561,131.27759)" />
  </g>
</svg>
